<?xml version="1.0" encoding="UTF-8"?>
<svg xmlns="http://www.w3.org/2000/svg" xmlns:xlink="http://www.w3.org/1999/xlink" width="1920" height="1080" viewBox="0 0 1920 1080">
<defs>
<g>
<g id="glyph-0-0">
<path d="M 2.976562 -1.710938 L 2.203125 -3.546875 L 1.441406 -1.710938 Z M 0.0976562 0 L 0.0976562 -0.121094 C 0.269531 -0.140625 0.398438 -0.207031 0.484375 -0.316406 C 0.570312 -0.425781 0.714844 -0.726562 0.925781 -1.21875 L 2.316406 -4.488281 L 2.445312 -4.488281 L 4.105469 -0.710938 C 4.214844 -0.457031 4.304688 -0.300781 4.371094 -0.242188 C 4.4375 -0.183594 4.546875 -0.140625 4.703125 -0.121094 L 4.703125 0 L 3.007812 0 L 3.007812 -0.121094 C 3.203125 -0.136719 3.328125 -0.160156 3.386719 -0.183594 C 3.441406 -0.207031 3.46875 -0.269531 3.46875 -0.367188 C 3.46875 -0.398438 3.460938 -0.457031 3.4375 -0.539062 C 3.414062 -0.621094 3.386719 -0.710938 3.347656 -0.800781 L 3.070312 -1.441406 L 1.324219 -1.441406 C 1.152344 -1.003906 1.046875 -0.738281 1.015625 -0.644531 C 0.980469 -0.546875 0.964844 -0.46875 0.964844 -0.414062 C 0.964844 -0.300781 1.007812 -0.222656 1.101562 -0.179688 C 1.15625 -0.152344 1.261719 -0.132812 1.417969 -0.121094 L 1.417969 0 Z "/>
</g>
<g id="glyph-0-1">
<path d="M 0.65625 0.601562 C 0.65625 0.785156 0.757812 0.910156 0.960938 0.980469 C 1.167969 1.050781 1.402344 1.085938 1.667969 1.085938 C 2.027344 1.085938 2.320312 1.023438 2.546875 0.898438 C 2.773438 0.773438 2.882812 0.617188 2.882812 0.4375 C 2.882812 0.292969 2.792969 0.195312 2.609375 0.148438 C 2.496094 0.117188 2.285156 0.101562 1.96875 0.0976562 C 1.890625 0.09375 1.804688 0.09375 1.714844 0.0898438 C 1.625 0.0859375 1.546875 0.0820312 1.472656 0.078125 C 1.425781 0.0742188 1.347656 0.0664062 1.242188 0.0507812 C 1.132812 0.0351562 1.054688 0.0234375 1.003906 0.0117188 C 0.976562 0.0117188 0.914062 0.0820312 0.8125 0.21875 C 0.707031 0.355469 0.65625 0.484375 0.65625 0.601562 Z M 1.078125 -1.09375 C 0.878906 -1.160156 0.726562 -1.273438 0.617188 -1.441406 C 0.507812 -1.609375 0.453125 -1.796875 0.453125 -2.003906 C 0.453125 -2.257812 0.554688 -2.5 0.753906 -2.726562 C 0.957031 -2.957031 1.242188 -3.070312 1.613281 -3.070312 C 1.769531 -3.070312 1.945312 -3.03125 2.136719 -2.957031 C 2.328125 -2.882812 2.511719 -2.84375 2.6875 -2.84375 C 2.730469 -2.84375 2.800781 -2.847656 2.890625 -2.851562 C 2.984375 -2.855469 3.050781 -2.855469 3.09375 -2.855469 L 3.132812 -2.855469 L 3.132812 -2.589844 L 2.570312 -2.589844 C 2.609375 -2.5 2.636719 -2.421875 2.660156 -2.355469 C 2.695312 -2.226562 2.714844 -2.109375 2.714844 -1.996094 C 2.714844 -1.75 2.613281 -1.519531 2.40625 -1.3125 C 2.203125 -1.105469 1.925781 -1.003906 1.578125 -1.003906 C 1.523438 -1.003906 1.425781 -1.011719 1.285156 -1.03125 C 1.222656 -1.03125 1.140625 -0.980469 1.035156 -0.871094 C 0.933594 -0.765625 0.882812 -0.679688 0.882812 -0.613281 C 0.882812 -0.542969 0.957031 -0.492188 1.109375 -0.460938 C 1.210938 -0.4375 1.320312 -0.425781 1.441406 -0.425781 C 2 -0.425781 2.378906 -0.394531 2.578125 -0.332031 C 2.90625 -0.230469 3.070312 -0.0117188 3.070312 0.324219 C 3.070312 0.667969 2.878906 0.941406 2.496094 1.144531 C 2.113281 1.347656 1.726562 1.453125 1.335938 1.453125 C 0.980469 1.453125 0.695312 1.378906 0.488281 1.234375 C 0.28125 1.089844 0.175781 0.941406 0.175781 0.78125 C 0.175781 0.703125 0.203125 0.625 0.257812 0.550781 C 0.3125 0.476562 0.421875 0.367188 0.585938 0.21875 L 0.800781 0.0273438 L 0.839844 -0.0117188 C 0.738281 -0.0507812 0.664062 -0.0898438 0.617188 -0.128906 C 0.527344 -0.195312 0.484375 -0.269531 0.484375 -0.359375 C 0.484375 -0.4375 0.523438 -0.527344 0.597656 -0.625 C 0.671875 -0.71875 0.832031 -0.875 1.078125 -1.09375 Z M 1.695312 -1.160156 C 1.816406 -1.160156 1.914062 -1.191406 1.996094 -1.257812 C 2.125 -1.359375 2.191406 -1.542969 2.191406 -1.800781 C 2.191406 -2.007812 2.136719 -2.238281 2.03125 -2.496094 C 1.925781 -2.753906 1.753906 -2.882812 1.507812 -2.882812 C 1.292969 -2.882812 1.148438 -2.785156 1.066406 -2.582031 C 1.027344 -2.476562 1.007812 -2.34375 1.007812 -2.1875 C 1.007812 -1.921875 1.070312 -1.683594 1.199219 -1.476562 C 1.328125 -1.265625 1.492188 -1.160156 1.695312 -1.160156 Z "/>
</g>
<g id="glyph-0-2">
<path d="M 1.527344 -3.054688 C 1.832031 -3.054688 2.101562 -2.949219 2.332031 -2.734375 C 2.5625 -2.523438 2.675781 -2.222656 2.675781 -1.835938 L 0.609375 -1.835938 C 0.628906 -1.332031 0.746094 -0.964844 0.949219 -0.734375 C 1.15625 -0.503906 1.402344 -0.390625 1.683594 -0.390625 C 1.910156 -0.390625 2.101562 -0.449219 2.257812 -0.570312 C 2.414062 -0.6875 2.558594 -0.859375 2.691406 -1.078125 L 2.804688 -1.039062 C 2.714844 -0.761719 2.550781 -0.507812 2.304688 -0.273438 C 2.0625 -0.0390625 1.761719 0.078125 1.410156 0.078125 C 1 0.078125 0.6875 -0.0742188 0.464844 -0.382812 C 0.242188 -0.691406 0.128906 -1.046875 0.128906 -1.449219 C 0.128906 -1.886719 0.257812 -2.261719 0.519531 -2.578125 C 0.777344 -2.894531 1.113281 -3.054688 1.527344 -3.054688 Z M 1.339844 -2.816406 C 1.089844 -2.816406 0.902344 -2.707031 0.773438 -2.488281 C 0.703125 -2.371094 0.652344 -2.222656 0.621094 -2.042969 L 1.996094 -2.042969 C 1.972656 -2.261719 1.929688 -2.421875 1.871094 -2.53125 C 1.765625 -2.722656 1.585938 -2.816406 1.339844 -2.816406 Z "/>
</g>
<g id="glyph-0-3">
<path d="M 0.121094 -0.0898438 C 0.273438 -0.109375 0.382812 -0.148438 0.445312 -0.207031 C 0.507812 -0.265625 0.539062 -0.394531 0.539062 -0.59375 L 0.539062 -2.242188 C 0.539062 -2.382812 0.523438 -2.480469 0.5 -2.535156 C 0.457031 -2.617188 0.371094 -2.660156 0.246094 -2.660156 C 0.226562 -2.660156 0.203125 -2.660156 0.183594 -2.65625 C 0.164062 -2.652344 0.136719 -2.652344 0.109375 -2.648438 L 0.109375 -2.761719 C 0.195312 -2.785156 0.40625 -2.855469 0.738281 -2.960938 L 1.046875 -3.0625 C 1.0625 -3.0625 1.070312 -3.058594 1.074219 -3.046875 C 1.078125 -3.035156 1.078125 -3.019531 1.078125 -3 L 1.078125 -2.523438 C 1.277344 -2.710938 1.433594 -2.835938 1.546875 -2.90625 C 1.714844 -3.011719 1.890625 -3.066406 2.074219 -3.066406 C 2.222656 -3.066406 2.355469 -3.023438 2.476562 -2.941406 C 2.710938 -2.773438 2.828125 -2.480469 2.828125 -2.058594 L 2.828125 -0.539062 C 2.828125 -0.382812 2.859375 -0.269531 2.921875 -0.199219 C 2.984375 -0.128906 3.089844 -0.09375 3.238281 -0.0898438 L 3.238281 0 L 1.847656 0 L 1.847656 -0.0898438 C 2.007812 -0.113281 2.117188 -0.15625 2.179688 -0.222656 C 2.242188 -0.289062 2.277344 -0.433594 2.277344 -0.65625 L 2.277344 -2.042969 C 2.277344 -2.230469 2.242188 -2.386719 2.171875 -2.507812 C 2.101562 -2.628906 1.972656 -2.691406 1.789062 -2.691406 C 1.660156 -2.691406 1.527344 -2.648438 1.398438 -2.5625 C 1.324219 -2.511719 1.226562 -2.429688 1.109375 -2.316406 L 1.109375 -0.492188 C 1.109375 -0.335938 1.144531 -0.230469 1.214844 -0.175781 C 1.285156 -0.125 1.394531 -0.09375 1.542969 -0.0898438 L 1.542969 0 L 0.121094 0 Z "/>
</g>
<g id="glyph-0-4">
<path d="M 1.695312 -3 L 1.695312 -2.765625 L 1.03125 -2.765625 L 1.027344 -0.890625 C 1.027344 -0.726562 1.039062 -0.601562 1.066406 -0.519531 C 1.121094 -0.367188 1.222656 -0.292969 1.375 -0.292969 C 1.453125 -0.292969 1.519531 -0.3125 1.578125 -0.347656 C 1.636719 -0.386719 1.699219 -0.445312 1.773438 -0.523438 L 1.859375 -0.453125 L 1.789062 -0.355469 C 1.675781 -0.203125 1.554688 -0.09375 1.429688 -0.03125 C 1.304688 0.03125 1.183594 0.0625 1.066406 0.0625 C 0.808594 0.0625 0.636719 -0.0507812 0.542969 -0.28125 C 0.492188 -0.402344 0.46875 -0.574219 0.46875 -0.792969 L 0.46875 -2.765625 L 0.113281 -2.765625 C 0.101562 -2.773438 0.09375 -2.78125 0.0898438 -2.785156 C 0.0859375 -2.792969 0.0820312 -2.800781 0.0820312 -2.8125 C 0.0820312 -2.835938 0.0859375 -2.851562 0.0976562 -2.863281 C 0.105469 -2.875 0.136719 -2.902344 0.1875 -2.945312 C 0.339844 -3.070312 0.445312 -3.171875 0.511719 -3.246094 C 0.578125 -3.324219 0.734375 -3.527344 0.980469 -3.859375 C 1.007812 -3.859375 1.023438 -3.855469 1.03125 -3.851562 C 1.035156 -3.847656 1.039062 -3.832031 1.039062 -3.800781 L 1.039062 -3 Z "/>
</g>
</g>
</defs>
<g fill="rgb(100%, 100%, 100%)" fill-opacity="1">
<use xlink:href="#glyph-0-0" x="30" y="25"/>
<use xlink:href="#glyph-0-1" x="35" y="25"/>
<use xlink:href="#glyph-0-2" x="38" y="25"/>
<use xlink:href="#glyph-0-3" x="41" y="25"/>
<use xlink:href="#glyph-0-4" x="44" y="25"/>
</g>
</svg>
