<?xml version="1.0" encoding="UTF-8"?>
<svg xmlns="http://www.w3.org/2000/svg" xmlns:xlink="http://www.w3.org/1999/xlink" width="854" height="480" viewBox="0 0 854 480">
<defs>
<g>
<g id="glyph-0-0">
<path d="M 0.101562 -0.101562 C 0.328125 -0.117188 0.464844 -0.160156 0.519531 -0.222656 C 0.574219 -0.285156 0.601562 -0.433594 0.601562 -0.667969 L 0.601562 -3.074219 C 0.601562 -3.273438 0.570312 -3.402344 0.511719 -3.460938 C 0.449219 -3.519531 0.3125 -3.558594 0.101562 -3.574219 L 0.101562 -3.675781 L 1.683594 -3.675781 L 1.683594 -3.574219 C 1.46875 -3.5625 1.328125 -3.527344 1.265625 -3.464844 C 1.203125 -3.402344 1.167969 -3.273438 1.167969 -3.074219 L 1.167969 -1.933594 C 1.511719 -2.226562 1.789062 -2.472656 2.007812 -2.675781 C 2.394531 -3.046875 2.589844 -3.285156 2.589844 -3.390625 C 2.589844 -3.464844 2.558594 -3.515625 2.492188 -3.539062 C 2.425781 -3.5625 2.332031 -3.574219 2.210938 -3.574219 L 2.210938 -3.675781 L 3.664062 -3.675781 L 3.664062 -3.585938 C 3.488281 -3.566406 3.347656 -3.53125 3.246094 -3.480469 C 3.144531 -3.429688 3.003906 -3.3125 2.820312 -3.136719 L 1.765625 -2.101562 L 3.058594 -0.707031 C 3.300781 -0.449219 3.464844 -0.285156 3.550781 -0.222656 C 3.636719 -0.15625 3.765625 -0.113281 3.933594 -0.09375 L 3.933594 0 L 2.234375 0 L 2.234375 -0.101562 C 2.390625 -0.105469 2.492188 -0.117188 2.546875 -0.136719 C 2.601562 -0.15625 2.628906 -0.195312 2.628906 -0.25 C 2.628906 -0.28125 2.609375 -0.328125 2.574219 -0.390625 C 2.539062 -0.453125 2.484375 -0.527344 2.410156 -0.609375 L 1.355469 -1.765625 L 1.167969 -1.605469 L 1.167969 -0.601562 C 1.167969 -0.394531 1.199219 -0.265625 1.261719 -0.210938 C 1.324219 -0.15625 1.460938 -0.117188 1.671875 -0.101562 L 1.671875 0 L 0.101562 0 Z "/>
</g>
<g id="glyph-0-1">
<path d="M 1.59375 -1.503906 C 1.386719 -1.433594 1.210938 -1.359375 1.078125 -1.273438 C 0.816406 -1.113281 0.6875 -0.929688 0.6875 -0.726562 C 0.6875 -0.5625 0.742188 -0.441406 0.847656 -0.363281 C 0.917969 -0.3125 1 -0.289062 1.085938 -0.289062 C 1.203125 -0.289062 1.320312 -0.320312 1.429688 -0.386719 C 1.539062 -0.453125 1.59375 -0.539062 1.59375 -0.644531 Z M 0.203125 -0.539062 C 0.203125 -0.800781 0.335938 -1.019531 0.597656 -1.195312 C 0.761719 -1.304688 1.09375 -1.453125 1.59375 -1.636719 L 1.59375 -1.867188 C 1.59375 -2.054688 1.574219 -2.183594 1.539062 -2.253906 C 1.476562 -2.375 1.347656 -2.4375 1.15625 -2.4375 C 1.0625 -2.4375 0.976562 -2.414062 0.890625 -2.367188 C 0.808594 -2.316406 0.769531 -2.25 0.769531 -2.164062 C 0.769531 -2.144531 0.773438 -2.105469 0.78125 -2.054688 C 0.789062 -2.003906 0.792969 -1.96875 0.792969 -1.957031 C 0.792969 -1.855469 0.761719 -1.785156 0.695312 -1.746094 C 0.65625 -1.722656 0.609375 -1.710938 0.558594 -1.710938 C 0.476562 -1.710938 0.414062 -1.734375 0.371094 -1.789062 C 0.328125 -1.84375 0.304688 -1.902344 0.304688 -1.964844 C 0.304688 -2.09375 0.382812 -2.226562 0.542969 -2.363281 C 0.699219 -2.503906 0.925781 -2.570312 1.230469 -2.570312 C 1.582031 -2.570312 1.816406 -2.457031 1.941406 -2.230469 C 2.007812 -2.105469 2.042969 -1.921875 2.042969 -1.683594 L 2.042969 -0.597656 C 2.042969 -0.492188 2.050781 -0.417969 2.0625 -0.378906 C 2.085938 -0.308594 2.136719 -0.273438 2.210938 -0.273438 C 2.253906 -0.273438 2.285156 -0.28125 2.3125 -0.292969 C 2.339844 -0.304688 2.386719 -0.335938 2.453125 -0.386719 L 2.453125 -0.246094 C 2.398438 -0.175781 2.335938 -0.117188 2.269531 -0.0703125 C 2.167969 0 2.0625 0.03125 1.957031 0.03125 C 1.835938 0.03125 1.746094 -0.0078125 1.691406 -0.0859375 C 1.636719 -0.167969 1.605469 -0.261719 1.601562 -0.371094 C 1.464844 -0.253906 1.34375 -0.164062 1.246094 -0.105469 C 1.082031 -0.0078125 0.925781 0.0390625 0.777344 0.0390625 C 0.621094 0.0390625 0.488281 -0.015625 0.375 -0.125 C 0.261719 -0.234375 0.203125 -0.371094 0.203125 -0.539062 Z "/>
</g>
<g id="glyph-0-2">
<path d="M 0.109375 -0.0742188 C 0.300781 -0.0859375 0.425781 -0.121094 0.488281 -0.183594 C 0.546875 -0.246094 0.578125 -0.378906 0.578125 -0.578125 L 0.578125 -2.320312 L 0.113281 -2.320312 L 0.113281 -2.5 L 0.578125 -2.5 C 0.578125 -2.785156 0.617188 -3.027344 0.695312 -3.226562 C 0.84375 -3.605469 1.113281 -3.792969 1.511719 -3.792969 C 1.671875 -3.792969 1.8125 -3.761719 1.9375 -3.699219 C 2.0625 -3.632812 2.125 -3.550781 2.125 -3.441406 C 2.125 -3.382812 2.105469 -3.328125 2.0625 -3.28125 C 2.019531 -3.234375 1.964844 -3.210938 1.90625 -3.210938 C 1.851562 -3.210938 1.808594 -3.226562 1.769531 -3.257812 C 1.730469 -3.289062 1.683594 -3.347656 1.632812 -3.425781 L 1.585938 -3.496094 C 1.5625 -3.535156 1.53125 -3.566406 1.496094 -3.59375 C 1.460938 -3.621094 1.414062 -3.632812 1.355469 -3.632812 C 1.21875 -3.632812 1.125 -3.566406 1.074219 -3.429688 C 1.046875 -3.355469 1.035156 -3.261719 1.035156 -3.144531 L 1.035156 -2.5 L 1.714844 -2.5 L 1.714844 -2.320312 L 1.039062 -2.320312 L 1.039062 -0.578125 C 1.039062 -0.375 1.066406 -0.242188 1.121094 -0.1875 C 1.175781 -0.128906 1.320312 -0.09375 1.554688 -0.0742188 L 1.554688 0 L 0.109375 0 Z "/>
</g>
<g id="glyph-0-3">
<path d="M 0.0117188 -0.0742188 C 0.183594 -0.0898438 0.300781 -0.117188 0.355469 -0.164062 C 0.410156 -0.207031 0.4375 -0.304688 0.4375 -0.457031 L 0.4375 -3.175781 C 0.4375 -3.304688 0.414062 -3.382812 0.371094 -3.417969 C 0.328125 -3.453125 0.265625 -3.46875 0.183594 -3.46875 C 0.148438 -3.46875 0.121094 -3.46875 0.09375 -3.46875 C 0.0703125 -3.464844 0.0429688 -3.460938 0.0117188 -3.457031 L 0.0117188 -3.535156 L 0.253906 -3.601562 C 0.441406 -3.648438 0.597656 -3.695312 0.730469 -3.738281 C 0.808594 -3.765625 0.855469 -3.777344 0.867188 -3.777344 C 0.878906 -3.777344 0.886719 -3.777344 0.886719 -3.773438 C 0.890625 -3.769531 0.890625 -3.757812 0.890625 -3.742188 L 0.890625 -1.460938 L 1.644531 -2.121094 C 1.699219 -2.171875 1.734375 -2.210938 1.753906 -2.238281 C 1.773438 -2.265625 1.78125 -2.292969 1.78125 -2.3125 C 1.78125 -2.355469 1.761719 -2.382812 1.722656 -2.394531 C 1.679688 -2.402344 1.609375 -2.410156 1.503906 -2.417969 L 1.503906 -2.492188 L 2.632812 -2.492188 L 2.632812 -2.417969 C 2.429688 -2.40625 2.269531 -2.363281 2.144531 -2.296875 C 2.023438 -2.230469 1.785156 -2.035156 1.4375 -1.714844 L 1.277344 -1.566406 L 1.78125 -0.917969 C 2.035156 -0.585938 2.230469 -0.363281 2.359375 -0.253906 C 2.488281 -0.144531 2.628906 -0.0820312 2.773438 -0.0703125 L 2.773438 0 L 1.566406 0 L 1.566406 -0.0742188 L 1.664062 -0.0820312 C 1.695312 -0.0820312 1.722656 -0.0898438 1.746094 -0.101562 C 1.773438 -0.113281 1.785156 -0.128906 1.785156 -0.15625 C 1.785156 -0.175781 1.78125 -0.191406 1.769531 -0.210938 C 1.761719 -0.226562 1.75 -0.246094 1.734375 -0.269531 L 0.890625 -1.375 L 0.890625 -0.371094 C 0.890625 -0.246094 0.9375 -0.164062 1.03125 -0.121094 C 1.085938 -0.0976562 1.179688 -0.0820312 1.308594 -0.0820312 L 1.308594 0 L 0.0117188 0 Z "/>
</g>
</g>
</defs>
<g fill="rgb(100%, 100%, 100%)" fill-opacity="1">
<use xlink:href="#glyph-0-0" x="30" y="24.166992"/>
<use xlink:href="#glyph-0-1" x="34" y="24.166992"/>
<use xlink:href="#glyph-0-2" x="36" y="24.166992"/>
<use xlink:href="#glyph-0-3" x="38" y="24.166992"/>
<use xlink:href="#glyph-0-1" x="41" y="24.166992"/>
</g>
</svg>
